<?xml version="1.0" encoding="utf-8"?>
<!-- Generator: Adobe Illustrator 23.1.0, SVG Export Plug-In . SVG Version: 6.00 Build 0)  -->
<!DOCTYPE svg PUBLIC "-//W3C//DTD SVG 1.1//EN" "http://www.w3.org/Graphics/SVG/1.1/DTD/svg11.dtd" [
	<!ENTITY ns_extend "http://ns.adobe.com/Extensibility/1.0/">
	<!ENTITY ns_ai "http://ns.adobe.com/AdobeIllustrator/10.0/">
	<!ENTITY ns_graphs "http://ns.adobe.com/Graphs/1.0/">
	<!ENTITY ns_vars "http://ns.adobe.com/Variables/1.0/">
	<!ENTITY ns_imrep "http://ns.adobe.com/ImageReplacement/1.0/">
	<!ENTITY ns_sfw "http://ns.adobe.com/SaveForWeb/1.0/">
	<!ENTITY ns_custom "http://ns.adobe.com/GenericCustomNamespace/1.0/">
	<!ENTITY ns_adobe_xpath "http://ns.adobe.com/XPath/1.0/">
]>
<svg version="1.1" id="Layer_1" xmlns:x="&ns_extend;" xmlns:i="&ns_ai;" xmlns:graph="&ns_graphs;"
	 xmlns="http://www.w3.org/2000/svg" xmlns:xlink="http://www.w3.org/1999/xlink" x="0px" y="0px" viewBox="0 0 200 56"
	 style="enable-background:new 0 0 200 56;" xml:space="preserve">
<metadata>
	<sfw  xmlns="&ns_sfw;">
		<slices></slices>
		<sliceSourceBounds  bottomLeftOrigin="true" height="56" width="200" x="0" y="0"></sliceSourceBounds>
	</sfw>
</metadata>
<path d="M10.696,9.315c0,0,0.926-0.828,2.829-2.799c-5.497,0-7.995,0-13.492,0c0,11.022-0.075,2.122,0,13.533
	c1.539-1.506,2.678-2.511,2.678-2.511s5.38,4.893,11.813,11.533c2.998-3.509,4.497-5.563,6.996-8.57
	C15.613,14.324,10.696,9.315,10.696,9.315z"/>
<path d="M48.503,42.5c-1.752,1.732-2.602,2.616-2.602,2.616S40.368,40.038,34.511,34c-2.628,2.109-5.497,4.5-8.495,7
	c6.433,6.641,11.987,12.276,11.987,12.276S37.203,54.104,35.376,56c4.681,0,5.707,0,5.707,0c0.876,0,2.89,0,7.42,0
	C48.503,50.109,48.503,48,48.503,42.5z"/>
<path d="M10.709,52.963c0,0,7.261-5.699,15.309-11.963c-2.115-2.335-9.002-9.368-11.493-11.929c-6.145,8.31-11.8,15.745-11.8,15.745
	c-1.192-1.209-1.691-1.711-2.691-2.713c0,10.419,0,6.517,0,6.14c0,0.226,0,2.171,0,7.757c3.517,0,5.545,0,6.496,0
	c-0.438,0,0.275,0,6.996,0C11.86,54.268,10.709,52.963,10.709,52.963z"/>
<path d="M26.537,3.489c2.776,3.081,4.089,4.542,4.089,4.542S26.785,13.535,21.52,20.5c3.139,3.081,10.716,11.381,12.992,13.5
	c6.496-4.5,13.223-9.347,13.223-9.347s1.026,0.95,3.952,3.958C55.063,0.757,55,0,55,0C36.353,2.134,46.052,1.004,26.537,3.489z"/>
<path d="M77,17.406c0,2.082-0.759,3.716-2.265,4.913c-1.506,1.184-3.588,1.783-6.233,1.783S63.678,23.691,62,22.868v-3.628
	c1.065,0.499,2.204,0.898,3.404,1.185c1.212,0.287,2.326,0.436,3.367,0.436c1.518,0,2.633-0.287,3.355-0.86
	c0.722-0.573,1.09-1.347,1.09-2.319c0-0.873-0.331-1.621-0.992-2.232c-0.661-0.611-2.033-1.334-4.102-2.17
	c-2.143-0.86-3.649-1.858-4.518-2.968c-0.882-1.11-1.31-2.444-1.31-4.015c0-1.958,0.698-3.491,2.082-4.613
	C65.759,0.561,67.633,0,69.971,0c2.241,0,4.482,0.486,6.698,1.471l-1.237,3.13c-2.082-0.873-3.943-1.309-5.584-1.309
	c-1.237,0-2.18,0.274-2.816,0.823c-0.637,0.536-0.967,1.247-0.967,2.132c0,0.611,0.122,1.135,0.38,1.571
	c0.257,0.424,0.674,0.835,1.261,1.222c0.588,0.387,1.641,0.898,3.172,1.521c1.727,0.711,2.976,1.384,3.784,2.007
	c0.796,0.623,1.384,1.322,1.763,2.095C76.816,15.436,77,16.347,77,17.406z"/>
<path d="M102,24h-3.954V13.175H86.941V24H83V0h3.941v9.817h11.105V0H102V24z"/>
<path d="M129.587,12.139c0,3.841-0.975,6.829-2.925,8.963c-1.937,2.134-4.7,3.201-8.262,3.201c-3.613,0-6.388-1.055-8.325-3.163
	c-1.925-2.122-2.9-5.134-2.9-9.026s0.975-6.892,2.912-8.976c1.95-2.084,4.738-3.138,8.35-3.138c3.55,0,6.3,1.054,8.25,3.176
	C128.625,5.297,129.587,8.285,129.587,12.139z M111.337,12.139c0,2.912,0.6,5.109,1.788,6.616c1.187,1.494,2.95,2.247,5.287,2.247
	c2.325,0,4.075-0.741,5.25-2.222c1.188-1.481,1.788-3.703,1.788-6.641c0-2.9-0.588-5.097-1.763-6.59
	c-1.162-1.494-2.912-2.247-5.237-2.247c-2.35,0-4.113,0.753-5.313,2.247C111.925,7.055,111.337,9.252,111.337,12.139z"/>
<path d="M151.237,7.507c0,2.46-0.825,4.356-2.45,5.662c-1.637,1.318-3.962,1.971-6.987,1.971h-2.488v8.838H135.4v-23.6h6.887
	c2.988,0,5.225,0.603,6.713,1.808C150.487,3.389,151.237,5.159,151.237,7.507z M139.312,11.9h2.075c2.013,0,3.475-0.339,4.413-1.029
	c0.937-0.69,1.412-1.77,1.412-3.226c0-1.356-0.425-2.373-1.262-3.038c-0.838-0.665-2.15-1.004-3.925-1.004h-2.713V11.9z"/>
<path d="M77,56H62V32h14.988v3.211H65.997v6.497h10.287V45H65.997v7.789h10.991L77,56z"/>
<path d="M162,56h-15V32h14.988v3.211h-10.991v6.497h10.286V45h-10.286v7.789h10.991L162,56z"/>
<path d="M101,56h-4.665l-6.489-10.011L83.305,56H79l8.494-12.604L79.861,32h4.472l5.68,8.953L95.693,32h4.356l-7.685,11.471L101,56z
	"/>
<path d="M120,39.165c0,2.468-0.821,4.369-2.475,5.679c-1.654,1.322-4.003,1.977-7.059,1.977h-2.513V56H104V32h6.958
	c3.018,0,5.279,0.604,6.782,1.813C119.255,35.022,120,36.81,120,39.165z M107.953,43.572h2.096c2.033,0,3.511-0.34,4.458-1.033
	c0.947-0.693,1.427-1.775,1.427-3.236c0-1.36-0.43-2.38-1.276-3.047c-0.846-0.667-2.172-1.007-3.965-1.007h-2.74V43.572z"/>
<path d="M129.854,43.012h2.671c1.798,0,3.091-0.34,3.903-1.007c0.813-0.667,1.207-1.661,1.207-2.983
	c0-1.334-0.431-2.303-1.305-2.882c-0.874-0.579-2.18-0.868-3.928-0.868h-2.548V43.012z M129.854,46.221V56H126V32h6.661
	c3.041,0,5.294,0.566,6.759,1.712c1.465,1.145,2.192,2.869,2.192,5.185c0,2.945-1.527,5.047-4.581,6.293L144,55.987h-4.383
	l-5.959-9.779h-3.804V46.221z"/>
<path d="M181,49.336c0,2.072-0.747,3.698-2.265,4.889c-1.506,1.179-3.588,1.775-6.233,1.775s-4.812-0.41-6.502-1.229V51.16
	c1.065,0.496,2.204,0.893,3.404,1.179c1.212,0.285,2.327,0.434,3.367,0.434c1.519,0,2.633-0.285,3.356-0.856
	c0.722-0.571,1.089-1.34,1.089-2.321c0-0.869-0.33-1.613-0.992-2.221c-0.661-0.608-2.032-1.328-4.102-2.159
	c-2.142-0.856-3.649-1.849-4.518-2.953c-0.882-1.104-1.31-2.432-1.31-3.996c0-1.948,0.698-3.475,2.081-4.591
	c1.384-1.117,3.258-1.675,5.596-1.675c2.241,0,4.482,0.484,6.698,1.464l-1.212,3.115c-2.082-0.869-3.943-1.303-5.584-1.303
	c-1.236,0-2.179,0.273-2.816,0.819c-0.637,0.534-0.955,1.241-0.955,2.122c0,0.608,0.122,1.129,0.38,1.564
	c0.257,0.422,0.673,0.831,1.261,1.216c0.588,0.385,1.641,0.894,3.171,1.514c1.727,0.707,2.976,1.377,3.784,1.998
	c0.796,0.62,1.384,1.315,1.763,2.085C180.816,47.363,181,48.281,181,49.336z"/>
<path d="M200,49.336c0,2.072-0.748,3.698-2.255,4.889c-1.507,1.179-3.591,1.775-6.238,1.775s-4.828-0.41-6.507-1.229V51.16
	c1.066,0.496,2.206,0.893,3.407,1.179c1.213,0.285,2.328,0.434,3.37,0.434c1.52,0,2.635-0.285,3.358-0.856
	c0.723-0.571,1.091-1.34,1.091-2.321c0-0.869-0.331-1.613-0.993-2.221s-2.034-1.328-4.106-2.159
	c-2.144-0.856-3.651-1.849-4.522-2.953c-0.882-1.104-1.311-2.432-1.311-3.996c0-1.948,0.699-3.475,2.083-4.591
	c1.385-1.117,3.26-1.675,5.601-1.675c2.243,0,4.485,0.484,6.703,1.464l-1.213,3.115c-2.083-0.869-3.946-1.303-5.588-1.303
	c-1.238,0-2.181,0.273-2.819,0.819c-0.637,0.534-0.956,1.241-0.956,2.122c0,0.608,0.123,1.129,0.38,1.564
	c0.258,0.422,0.674,0.831,1.263,1.216c0.588,0.385,1.642,0.894,3.174,1.514c1.728,0.707,2.99,1.377,3.786,1.998
	c0.809,0.62,1.385,1.315,1.765,2.085C199.816,47.363,200,48.281,200,49.336z"/>
</svg>
